PathFileType	4	(X/Y/Z)	D:\TRACE\spot_10-12-23\spot_body_motion_3_3-v60.trc
DataRate	CameraRate	NumFrames	NumMarkers	Units	OrigDataRate	OrigDataStartFrame	OrigNumFrames
100.00	100.00	      35	9	mm	100.00	4376	      7000
Frame#	Time	front left toe			Front right toe			aft left toe			aft right toe			Arm			FL body			FR body			AL Body			AR Body			
		X1	Y1	Z1	X2	Y2	Z2	X3	Y3	Z3	X4	Y4	Z4	X5	Y5	Z5	X6	Y6	Z6	X7	Y7	Z7	X8	Y8	Z8	X9	Y9	Z9	

4376	43.750	-183.09177	26.90255	101.08644	294.68231	25.17308	100.52274	-170.16878	61.71917	550.72437	308.89810	54.86401	529.22186	65.52633	801.91547	-136.58307	-19.33106	541.24902	-97.73025	133.26976	546.19067	-103.39435	6.51984	608.23346	783.43042	158.69435	607.60620	782.30389	
4377	43.760	-183.02626	26.82471	101.26082	294.61072	25.06771	100.54003	-170.20659	61.38192	550.85162	308.94150	54.56803	529.32086	65.54913	801.94476	-136.34392	-19.25997	541.26019	-97.57515	133.32379	546.21759	-103.15769	6.49429	608.05902	783.53253	158.53362	607.23773	782.40247	
4378	43.770	-182.99088	26.77490	101.35358	294.75839	25.10860	100.75415	-170.24344	61.07072	550.95520	309.01233	54.26342	529.54547	65.57014	801.98126	-136.11116	-19.28371	541.30835	-97.43369	133.25641	546.19202	-102.99880	6.68289	607.69043	783.89844	158.50481	606.73419	782.47656	
4379	43.780	-182.88785	26.69499	101.46064	294.75714	25.10396	100.80300	-170.24966	60.59177	551.09467	309.13660	53.79028	529.75189	65.64241	801.95795	-135.82320	-19.23532	541.23688	-97.27911	133.63629	545.86584	-102.96149	6.72031	607.54388	784.30389	158.20284	606.14624	781.82013	
4380	43.790	-182.81569	26.60508	101.58027	294.74484	25.02534	100.90063	-170.09589	60.09772	551.28851	309.18967	53.59184	529.94403	65.64066	801.93030	-135.54115	-19.21682	541.26257	-97.08255	133.65379	545.92871	-102.75114	6.98252	606.87225	784.57062	158.30684	605.56598	781.95795	
4381	43.800	-182.75977	26.52469	101.69951	294.87741	25.07191	101.00755	-170.03088	59.74031	551.43213	309.30685	53.18346	530.07800	65.59691	801.90991	-135.28760	-19.16670	541.21863	-96.87397	133.81537	545.79773	-102.14543	6.50967	606.24542	783.90820	158.66263	605.33752	782.71179	
4382	43.810	-182.72174	26.44213	101.83250	294.86307	24.99899	101.06401	-169.96185	59.44235	551.55023	309.39978	52.70855	530.25500	65.68493	801.97430	-134.91513	-19.19926	541.21204	-96.68959	133.81859	545.80872	-102.02880	6.86925	606.42548	784.83264	158.75560	604.99341	782.93927	
4383	43.820	-182.73512	26.40910	101.95769	294.87534	24.97614	101.19426	-169.97906	59.00715	551.68115	309.33112	52.35422	530.29474	65.69324	802.04895	-134.62955	-19.24974	541.28809	-96.54837	133.74599	545.82721	-101.89444	7.17870	605.89246	784.94763	158.63902	604.49054	782.97736	
4384	43.830	-182.73375	26.37416	102.06072	294.84222	24.90559	101.30828	-170.04741	58.51416	551.79663	309.32843	51.78405	530.47705	65.66586	802.08447	-134.39297	-19.27158	541.30042	-96.41464	133.96649	545.64709	-101.37642	7.35341	605.29285	785.17706	158.60364	604.09015	783.00690	
4385	43.840	-182.72774	26.29908	102.19309	294.90900	24.83782	101.55122	-170.06067	57.99295	551.86005	309.30292	51.31496	530.43756	65.65129	802.08429	-134.23981	-19.31461	541.30402	-96.32125	133.89316	545.64203	-101.42570	7.38428	604.54382	785.11890	158.47623	603.64832	782.98865	
4386	43.850	-182.70149	26.21008	102.31425	294.84805	24.70814	101.66850	-170.01385	57.48990	552.13568	309.33356	50.77983	530.54297	65.70041	802.03839	-134.03539	-19.32753	541.27020	-96.12561	133.86206	545.56171	-101.29974	7.15577	604.16278	785.25800	158.50255	603.13110	783.10431	
4387	43.860	-182.68282	26.15830	102.46771	294.91522	24.61333	101.87017	-170.04843	57.14929	552.23279	309.41220	50.40187	530.81006	65.65308	801.96454	-133.82278	-19.34752	541.27441	-96.02106	133.46779	545.78503	-101.93508	6.99715	604.35907	785.53949	158.36534	602.57538	783.08820	
4388	43.870	-182.64699	26.12162	102.59720	294.97153	24.56693	102.16349	-170.00337	56.54028	552.45660	309.44385	49.91310	531.11810	65.69724	801.92645	-133.58327	-19.40191	541.25177	-95.90601	133.44748	545.81927	-101.85779	7.39036	603.70319	785.87323	158.55754	602.32086	783.27649	
4389	43.880	-182.63721	26.06192	102.69985	294.89261	24.48802	102.30989	-169.93887	56.00550	552.67035	309.44614	49.54568	531.24109	65.70476	801.99274	-133.36954	-19.39059	541.19299	-95.80273	133.42986	545.78644	-101.67156	7.51432	602.87146	785.84552	158.31104	601.76965	783.16211	
4390	43.890	-182.61795	26.02617	102.81052	294.93707	24.33899	102.53748	-169.87450	55.28142	552.94830	309.38763	48.90583	531.27142	65.72102	802.01099	-133.03151	-19.40447	541.15228	-95.70258	133.41405	545.73615	-101.56558	7.69328	602.41638	786.09869	158.25198	601.16797	783.34271	
4391	43.900	-182.64732	25.91557	102.83894	294.99820	24.28411	102.61636	-169.81973	54.93370	553.12823	309.38794	48.39548	531.48126	65.52560	802.02374	-132.80505	-19.38415	541.12549	-95.61659	133.42242	545.70459	-101.41872	7.49068	602.39081	786.37164	158.19246	600.62103	783.37488	
4392	43.910	-182.88097	25.77854	103.07099	294.71930	24.50335	102.90359	-169.98079	54.02190	553.23907	309.25171	47.71197	531.56488	65.48551	801.97668	-132.45470	-19.33134	541.01227	-95.43003	133.44269	545.54602	-101.20878	7.49889	601.95331	786.49774	158.38728	600.30176	783.78363	
4393	43.920	-183.20018	25.50791	103.36564	294.62991	24.30231	102.77268	-170.13086	53.76340	553.51263	309.15677	47.19125	531.95074	66.08951	801.71759	-132.16023	-19.42664	540.78516	-95.21828	133.21587	545.33148	-101.28835	7.38165	601.29321	786.22382	158.28484	599.72046	783.56183	
4394	43.930	-183.01871	25.12131	103.60556	294.34152	24.16277	102.77587	-170.42026	53.10012	553.45886	308.93707	46.74273	532.11804	66.45621	801.33484	-131.97200	-19.29971	540.52728	-94.90793	133.46597	544.95380	-100.53861	7.71098	601.18909	786.92542	158.40390	599.19434	784.10046	
4395	43.940	-183.24101	24.99655	103.80921	294.11053	23.92800	103.13774	-170.42204	52.47312	553.86389	308.81961	46.20323	532.28510	66.66206	801.20496	-131.73805	-19.16195	540.36102	-94.65978	133.71983	544.70007	-100.15188	7.76256	600.64783	787.09753	158.38081	598.62189	784.46356	
4396	43.950	-183.44102	24.98714	103.98173	293.93933	23.72252	103.33875	-170.63153	51.79553	553.98877	308.59985	45.50194	532.60388	66.88278	801.12854	-131.32265	-19.02224	540.30408	-94.45557	133.87479	544.48846	-99.98742	7.52930	600.00330	787.27539	158.29283	598.03229	784.70917	
4397	43.960	-183.58168	24.97116	104.22104	293.58282	23.39094	103.38906	-170.80370	51.19427	554.04443	308.47287	44.87411	532.81714	67.26686	801.00806	-130.75304	-18.75528	540.36646	-94.14568	133.96609	544.71533	-99.96387	7.60726	599.54144	787.62677	158.46107	597.44885	785.08630	
4398	43.970	-183.79477	25.06860	104.41500	293.39349	23.33878	103.63800	-170.97371	50.63831	554.16718	308.16409	44.15395	532.87866	67.98504	801.01703	-130.13557	-18.49700	540.49670	-93.87465	134.32269	544.65198	-99.54585	7.89002	598.50049	788.04773	159.02142	596.93085	786.08783	
4399	43.980	-183.90973	25.02921	104.54597	293.14172	23.30834	103.80968	-171.20506	49.81635	554.47931	308.01511	43.50233	533.14581	68.33229	801.14587	-129.65140	-18.22251	540.54034	-93.53384	134.54938	544.51978	-99.12973	7.62032	598.11823	788.16992	158.60049	596.01434	785.90967	
4400	43.990	-184.12799	25.01896	104.73943	292.95273	23.23591	104.08166	-171.48343	49.28463	554.66620	307.77811	42.90821	533.47729	68.84612	801.18359	-128.95601	-18.00486	540.50800	-93.12318	134.84880	544.42383	-98.72748	7.91719	597.68250	788.82507	158.63878	595.22601	786.36987	
4401	44.000	-184.29729	24.99654	104.90016	293.13217	23.34308	104.42136	-171.84006	48.68110	554.83099	307.73294	42.37902	533.71875	69.20638	801.05994	-128.40526	-17.79701	540.53442	-92.68757	135.31233	544.11011	-97.86066	8.10929	596.53827	789.25916	158.73500	594.46826	786.86896	
4402	44.010	-184.40964	24.97047	105.08299	292.99869	23.25317	104.66215	-171.98633	47.94629	555.14557	307.47559	41.56674	533.86682	69.37695	801.00647	-127.82202	-17.64855	540.65710	-92.31557	135.44577	544.23529	-97.78625	8.03509	596.47198	789.78174	158.91438	593.73340	787.28156	
4403	44.020	-184.64456	25.02734	105.21587	292.85303	23.15088	104.93293	-172.08376	47.21854	555.51611	307.29446	40.72807	534.14124	69.87872	800.89490	-127.12884	-17.30469	540.55396	-91.73946	135.69179	544.07251	-97.31731	8.43367	595.72516	790.25385	159.12099	592.91101	787.83911	
4404	44.030	-184.95239	25.05153	105.40231	292.48361	23.01477	105.15060	-172.32632	46.50628	555.54510	307.01785	40.00233	534.52911	70.28188	800.80115	-126.45802	-17.03877	540.37469	-91.26873	135.84482	543.89917	-97.04160	8.44342	595.01495	790.89832	160.33694	592.47430	789.18347	
4405	44.040	-185.18466	24.99509	105.64977	292.32019	22.76152	105.40661	-172.51456	45.82615	555.87897	306.98428	39.54288	534.74219	70.78678	800.63892	-125.73428	-16.85907	540.19238	-90.67969	136.34450	543.34723	-95.97076	8.86387	593.91364	791.24548	159.74924	591.48505	789.01416	
4406	44.050	-185.52425	24.85685	105.92415	292.28949	22.55642	105.97453	-172.61217	45.09008	556.18347	306.52344	38.54853	534.97388	71.33518	800.41467	-125.04651	-16.75924	540.12805	-90.14746	136.53877	543.00165	-95.32993	9.32396	593.63074	792.05560	160.07108	590.58984	789.63232	
4407	44.060	-185.72978	24.66808	106.19765	291.74286	22.49561	105.70171	-172.79915	44.34330	556.42682	306.25525	37.66260	535.15405	71.64017	800.23517	-124.46891	-16.39155	539.88916	-89.56564	136.75253	542.94708	-94.96899	9.49671	593.16492	792.67261	160.95412	590.17804	790.84039	
4408	44.070	-185.67120	24.39931	106.46828	291.48975	22.39612	106.00130	-173.16525	43.62582	556.57513	305.97052	36.92301	535.40533	72.05119	799.88440	-123.58039	-16.04976	539.59094	-88.90052	136.79706	542.61615	-94.50204	9.94610	592.01294	793.17633	160.64354	589.09033	790.93304	
4409	44.080	-186.19199	24.43557	106.64716	291.20786	22.33491	106.32907	-173.48903	42.97050	556.77905	305.78500	36.26136	535.67200	72.48486	799.66809	-122.91752	-15.91103	539.54840	-88.43486	137.17126	542.15631	-93.49706	9.97677	591.70496	794.05145	160.81978	588.32324	791.51813	
4410	44.090	-186.55748	24.40246	106.91865	290.87479	22.23472	106.77898	-173.85297	42.08492	557.14221	305.55588	35.49424	535.96173	73.00592	799.48688	-122.00994	-15.59230	539.39587	-87.70524	137.25719	542.03210	-93.38836	10.28230	591.06909	794.41760	161.98062	587.67969	792.90955	
